<svg width="72" height="72" viewBox="0 0 72 72" fill="none" xmlns="http://www.w3.org/2000/svg">
<mask id="mask0_118:241" style="mask-type:alpha" maskUnits="userSpaceOnUse" x="3" y="2" width="66" height="68">
<path d="M4.89623 36C4.89623 18.4485 18.8487 4.26924 36 4.26924C53.1513 4.26924 67.1038 18.4485 67.1038 36C67.1038 53.5515 53.1513 67.7308 36 67.7308C18.8487 67.7308 4.89623 53.5515 4.89623 36Z" fill="#F4F3ED" stroke="#073734" stroke-width="3"/>
</mask>
<g mask="url(#mask0_118:241)">
<path d="M4.89623 36C4.89623 18.4485 18.8487 4.26924 36 4.26924C53.1513 4.26924 67.1038 18.4485 67.1038 36C67.1038 53.5515 53.1513 67.7308 36 67.7308C18.8487 67.7308 4.89623 53.5515 4.89623 36Z" stroke="url(#paint0_linear_118:241)" stroke-width="3"/>
</g>
<path d="M7.82442 42.8077L36 5.26804L64.1756 42.8077H7.82442Z" stroke="url(#paint1_linear_118:241)" stroke-width="3"/>
<path d="M18.1053 59.423L35.9999 30.5403L53.8945 59.423H18.1053Z" stroke="url(#paint2_linear_118:241)" stroke-width="3"/>
<path d="M34.4758 13.7675L35.1379 12.5986L35.2028 12.7131L35.9999 12.2615L36.797 12.7131L36.8619 12.5986L37.524 13.7675L36.2189 14.5068L37.2349 16.3005L38.5401 15.5612L39.5561 17.3549L38.251 18.0942L39.267 19.8879L40.5722 19.1486L41.5882 20.9423L40.2831 21.6816L41.2991 23.4753L42.6043 22.736L43.6203 24.5297L42.3152 25.269L43.3313 27.0627L44.6364 26.3234L45.6525 28.1171L44.3473 28.8564L45.3634 30.6501L46.6685 29.9108L47.6846 31.7045L46.3794 32.4438L47.3955 34.2375L48.7006 33.4982L49.7167 35.2919L48.4115 36.0313L49.4276 37.825L50.7327 37.0857L51.7488 38.8794L50.4437 39.6187L51.4597 41.4124L52.7649 40.6731L53.7809 42.4668L52.4758 43.2061L53.4918 44.9998L54.797 44.2605L55.813 46.0542L54.5079 46.7935L55.5239 48.5872L56.8291 47.8479L57.5035 49.0384H57.3371V49.9294L56.54 50.3809L56.6292 50.5384H55.305V49.0384H53.2729V50.5384H51.2408V49.0384H49.2087V50.5384H47.1765V49.0384H45.1444V50.5384H43.1123V49.0384H41.0802V50.5384H39.0481V49.0384H37.016V50.5384H34.9839V49.0384H32.9517V50.5384H30.9196V49.0384H28.8875V50.5384H26.8554V49.0384H24.8233V50.5384H22.7912V49.0384H20.7591V50.5384H18.7269V49.0384H16.6948V50.5384H15.3706L15.4598 50.3809L14.6627 49.9294V49.0384H14.4963L15.1707 47.8479L16.4759 48.5872L17.492 46.7935L16.1868 46.0542L17.2029 44.2605L18.508 44.9998L19.5241 43.2061L18.2189 42.4668L19.235 40.6731L20.5401 41.4124L21.5562 39.6187L20.251 38.8794L21.2671 37.0856L22.5722 37.825L23.5883 36.0312L22.2831 35.2919L23.2992 33.4982L24.6044 34.2375L25.6204 32.4438L24.3153 31.7045L25.3313 29.9108L26.6365 30.6501L27.6525 28.8564L26.3474 28.1171L27.3634 26.3234L28.6686 27.0627L29.6846 25.269L28.3795 24.5297L29.3955 22.736L30.7007 23.4753L31.7168 21.6816L30.4116 20.9423L31.4277 19.1486L32.7328 19.8879L33.7489 18.0942L32.4437 17.3549L33.4598 15.5612L34.7649 16.3005L35.781 14.5068L34.4758 13.7675Z" stroke="url(#paint3_linear_118:241)" stroke-width="3" stroke-dasharray="2 2"/>
<path d="M53.8946 12.577L36 41.4597L18.1053 12.577L53.8946 12.577Z" stroke="url(#paint4_linear_118:241)" stroke-width="3"/>
<path d="M64.1756 29.1923L36 66.732L7.82442 29.1923L64.1756 29.1923Z" stroke="url(#paint5_linear_118:241)" stroke-width="3"/>
<defs>
<linearGradient id="paint0_linear_118:241" x1="3.39623" y1="36" x2="68.6038" y2="36" gradientUnits="userSpaceOnUse">
<stop stop-color="#073734"/>
<stop offset="0.992755" stop-color="#8E7430"/>
</linearGradient>
<linearGradient id="paint1_linear_118:241" x1="72" y1="30.4615" x2="1.34102e-06" y2="30.4615" gradientUnits="userSpaceOnUse">
<stop stop-color="#073734"/>
<stop offset="0.992755" stop-color="#8E7430"/>
</linearGradient>
<linearGradient id="paint2_linear_118:241" x1="59.7735" y1="49.8461" x2="12.2263" y2="49.8461" gradientUnits="userSpaceOnUse">
<stop stop-color="#073734"/>
<stop offset="0.992755" stop-color="#8E7430"/>
</linearGradient>
<linearGradient id="paint3_linear_118:241" x1="61.8112" y1="37.3846" x2="10.1886" y2="37.3846" gradientUnits="userSpaceOnUse">
<stop stop-color="#073734"/>
<stop offset="0.992755" stop-color="#8E7430"/>
</linearGradient>
<linearGradient id="paint4_linear_118:241" x1="12.2264" y1="22.1539" x2="59.7736" y2="22.1539" gradientUnits="userSpaceOnUse">
<stop stop-color="#073734"/>
<stop offset="0.992755" stop-color="#8E7430"/>
</linearGradient>
<linearGradient id="paint5_linear_118:241" x1="8.66363e-06" y1="41.5385" x2="72" y2="41.5385" gradientUnits="userSpaceOnUse">
<stop stop-color="#073734"/>
<stop offset="0.992755" stop-color="#8E7430"/>
</linearGradient>
</defs>
</svg>
